# AST/ASF file generated using VICON BodyLanguage
# -----------------------------------------------
:version 1.10
:name VICON
:units
  mass 1.0
  length 0.45
  angle deg
:documentation
   .ast/.asf automatically generated from VICON data using
   VICON BodyBuilder and BodyLanguage model FoxedUp or BRILLIANT.MOD
:root
   order TX TY TZ RX RY RZ
   axis XYZ
   position 0 0 0  
   orientation 0 0 0 
:bonedata
  begin
     id 1 
     name lhipjoint
     direction 0.646657 -0.683706 0.338203 
     length 2.4948 
     axis 0 0 0  XYZ
  end
  begin
     id 2 
     name lfemur
     direction 0.34202 -0.939693 0  
     length 6.79491  
     axis 0 0 20  XYZ
    dof rx ry rz
    limits (-160.0 20.0)
           (-70.0 70.0)
           (-60.0 70.0)
  end
  begin
     id 3 
     name ltibia
     direction 0.34202 -0.939693 0   
     length 7.56807   
     axis 0 0 20   XYZ
    dof rx
    limits (-10.0 170.0)
  end
  begin
     id 4 
     name lfoot
     direction 0.0679796 -0.186772 0.980048   
     length 2.53018   
     axis -90 7.62852e-016 20   XYZ
    dof rx rz
    limits (-45.0 90.0)
           (-70.0 20.0)
  end
  begin
     id 5 
     name ltoes
     direction 1.53625e-011 -4.21881e-011 1   
     length 1.26912   
     axis -90 7.62852e-016 20   XYZ
    dof rx
    limits (-90.0 20.0)
  end
  begin
     id 6 
     name rhipjoint
     direction -0.618868 -0.704065 0.348274   
     length 2.42265  
     axis 0 0 0  XYZ 
  end
  begin
     id 7 
     name rfemur
     direction -0.34202 -0.939693 0   
     length 6.73814   
     axis 0 0 -20   XYZ
    dof rx ry rz
    limits (-160.0 20.0)
           (-70.0 70.0)
           (-70.0 60.0)
  end
  begin
     id 8 
     name rtibia
     direction -0.34202 -0.939693 0   
     length 7.66799   
     axis 0 0 -20   XYZ
    dof rx
    limits (-10.0 170.0)
 end
 begin
     id 9 
     name rfoot
     direction -0.0727352 -0.199838 0.977125   
     length 2.57224  
     axis -90 -7.62852e-016 -20   XYZ
    dof rx rz
    limits (-45.0 90.0)
           (-20.0 70.0)
  end
  begin
     id 10 
     name rtoes
     direction -1.53501e-011 -4.21858e-011 1   
     length 1.28858   
     axis -90 -7.62852e-016 -20   XYZ
    dof rx
    limits (-90.0 20.0)
  end
  begin
     id 11 
     name lowerback
     direction -0.0172471 0.995767 -0.0902851   
     length 2.20206   
     axis 0 0 0   XYZ
    dof rx ry rz
    limits (-20.0 45.0)
           (-30.0 30.0)
           (-30.0 30.0)
  end
  begin
     id 12 
     name upperback
     direction -0.000110737 0.999714 0.0239043   
     length 2.19523   
     axis 0 0 0   XYZ
    dof rx ry rz
    limits (-20.0 45.0)
           (-30.0 30.0)
           (-30.0 30.0)
  end
  begin
     id 13 
     name thorax
     direction 0.00704869 0.997783 0.0661741   
     length 2.21977   
     axis 0 0 0   XYZ
    dof rx ry rz
    limits (-20.0 45.0)
           (-30.0 30.0)
           (-30.0 30.0)
  end
  begin
     id 14 
     name lowerneck
     direction -0.00407501 0.995527 0.0943846   
     length 1.83142   
     axis 0 0 0   XYZ
    dof rx ry rz
    limits (-20.0 45.0)
           (-30.0 30.0)
           (-30.0 30.0)
  end
  begin
     id 15 
     name upperneck
     direction 0.0640586 0.986486 -0.150807   
     length 1.84616   
     axis 0 0 0   XYZ
    dof rx ry rz
    limits (-20.0 45.0)
           (-30.0 30.0)
           (-30.0 30.0)
  end
  begin
     id 16
     name head
     direction 0.0188017 0.99791 -0.0618239  
     length 1.85932  
     axis 0 0 0   XYZ
    dof rx ry rz
    limits (-20.0 45.0)
           (-30.0 30.0)
           (-30.0 30.0)
  end
  begin
     id 17 
     name lclavicle
     direction 0.976074 0.206905 0.066852  
     length 3.81043  
     axis 0 0 0   XYZ
    dof ry rz
    limits (-20.0 10.0)
           (0.0 20.0)
  end
  begin
     id 18 
     name lhumerus
     direction 1 -4.48971e-011 1.86916e-027   
     length 5.37587   
     axis 180 -30 -90   XYZ
    dof rx ry rz
    limits (-60.0 90.0)
           (-90.0 90.0)
           (-90.0 90.0)
  end
  begin
     id 19
     name lradius
     direction 1 -4.48968e-011 1.69187e-027   
     length 3.35977   
     axis 180 -30 -90   XYZ
    dof rx
    limits (-10.0 170.0)
  end
  begin
     id 20
     name lwrist
     direction 1 -4.48968e-011 5.8978e-027   
     length 1.67988   
     axis -3.27506e-015 90 90   XYZ
    dof ry
    limits (-180.0 0.0)
 end
  begin
     id 21 
     name lhand
     direction 1 -4.49028e-011 1.18071e-026   
     length 0.561859   
     axis -7.52654e-015 90 90   XYZ
    dof rx rz
    limits (-90.0 90.0)
           (-45.0 45.0)
  end
  begin
     id 22 
     name lfingers
     direction 1 -4.48927e-011 2.35758e-026   
     length 0.452985   
     axis -1.50534e-014 90 90   XYZ
    dof rx
    limits (0.0 90.0)
  end
  begin
     id 23
     name lthumb
     direction 0.707107 -6.34898e-011 0.707107   
     length 0.650399   
     axis -90 45 5.69224e-014   XYZ
    dof rx rz
    limits (-45.0 45.0)
           (-45.0 45.0)
  end
  begin
     id 24 
     name rclavicle
     direction -0.988403 0.151789 0.00439714   
     length 3.6942  
     axis 0 0 0   XYZ 
    dof ry rz
    limits (-10.0 20.0)
           (-20.0 0.0)
  end
  begin
     id 25 
     name rhumerus
     direction -1 -4.48978e-011 1.62495e-027  
     length 5.22819   
     axis 180 30 90   XYZ
    dof rx ry rz
    limits (-90.0 60.0)
           (-90.0 90.0)
           (-90.0 90.0)
  end
  begin
     id 26 
     name rradius
     direction -1 -4.48961e-011 3.47796e-027   
     length 3.40764   
     axis 180 30 90   XYZ
    dof rx
    limits (-10.0 170.0)
  end
  begin
     id 27 
     name rwrist
     direction -1 -4.48949e-011 5.89602e-027   
     length 1.70382   
     axis -3.27506e-015 -90 -90   XYZ
    dof ry
    limits (-180.0 0.0)
  end
  begin
     id 28
     name rhand
     direction -1 -4.48977e-011 1.17973e-026   
     length 0.583255   
     axis -7.52654e-015 -90 -90   XYZ
    dof rx rz
    limits (-90.0 90.0)
           (-45.0 45.0)
  end
  begin
     id 29
     name rfingers
     direction -1 -4.49099e-011 2.36408e-026   
     length 0.470235   
     axis -1.50534e-014 -90 -90   XYZ
    dof rx
    limits (0.0 90.0)
  end
  begin
     id 30
     name rthumb
     direction -0.707107 -6.35011e-011 0.707107   
     length 0.675167   
     axis -90 -45 -5.69224e-014   XYZ
    dof rx rz
    limits (-45.0 45.0)
           (-45.0 45.0)
  end
:hierarchy
  begin
    root lhipjoint rhipjoint lowerback
    lhipjoint lfemur
    lfemur ltibia
    ltibia lfoot
    lfoot ltoes
    rhipjoint rfemur
    rfemur rtibia
    rtibia rfoot
    rfoot rtoes
    lowerback upperback
    upperback thorax
    thorax lowerneck lclavicle rclavicle
    lowerneck upperneck
    upperneck head
    lclavicle lhumerus
    lhumerus lradius
    lradius lwrist
    lwrist lhand lthumb
    lhand lfingers
    rclavicle rhumerus
    rhumerus rradius
    rradius rwrist
    rwrist rhand rthumb
    rhand rfingers
  end

#!OML:ASF G:\JayActor3\Patient Classification 1\Patient 1\Session 2\male.ASF
:FULLY-SPECIFIED
:DEGREES
1050
root -38.7816 16.7704 -4.36719 347.174 78.3956 -374.6
lowerback 1.55698 5.09159 7.39382
upperback -1.27981 6.99475 0.430949
thorax -1.37231 3.41669 -3.80108
lowerneck -0.682309 13.4045 5.25963
upperneck -5.27223 18.0726 0.842613
head -1.1526 8.95685 -0.640223
rclavicle -3.60266e-014 -1.5704e-014
rhumerus -29.6713 -2.5132 -81.8785
rradius 26.585
rwrist 0.236398
rhand -18.0849 5.83173
rfingers 7.12502
rthumb 8.1884 -23.9896
lclavicle -3.60266e-014 -1.5704e-014
lhumerus -52.5003 13.0565 65.5666
lradius 16.3683
lwrist 2.34721
lhand -19.694 16.8273
lfingers 7.12502
lthumb 6.63527 46.7033
rfemur 6.09557 -12.5101 29.2321
rtibia 18.3862
rfoot -40.061 -18.0928
rtoes 23.5593
lfemur -32.7395 15.265 -23.0892
ltibia 42.4686
lfoot -17.1647 8.33976
ltoes -7.841
1051
root -38.7262 16.7542 -4.36399 346.548 78.4448 -375.324
lowerback 1.41474 5.12214 7.48156
upperback -1.3139 7.02725 0.436175
thorax -1.3149 3.43362 -3.83041
lowerneck -0.636024 13.4045 5.2866
upperneck -5.43517 18.085 0.829259
head -1.20813 8.95964 -0.659647
rclavicle 3.46631e-015 -1.47101e-014
rhumerus -29.1636 -1.94682 -81.9807
rradius 27.1024
rwrist -0.0801808
rhand -18.2966 5.97969
rfingers 7.12502
rthumb 7.98413 -23.8495
lclavicle 3.46631e-015 -1.47101e-014
lhumerus -53.1291 13.1738 64.9436
lradius 16.0912
lwrist 2.08186
lhand -19.6814 16.8285
lfingers 7.12502
lthumb 6.64737 46.7042
rfemur 6.34632 -12.4986 29.3272
rtibia 18.1686
rfoot -40.0588 -18.1241
rtoes 23.1482
lfemur -32.5201 14.7869 -22.8502
ltibia 41.5048
lfoot -17.4399 8.19127
ltoes -7.99965
1052
root -38.6698 16.7367 -4.36087 345.95 78.4744 -376.019
lowerback 1.26424 5.14872 7.55047
upperback -1.33388 7.05237 0.446556
thorax -1.24185 3.44806 -3.84248
lowerneck -0.596232 13.4043 5.30204
upperneck -5.61595 18.0981 0.818571
head -1.26967 8.96267 -0.677348
rclavicle -1.175e-014 1.37161e-014
rhumerus -28.6383 -1.44371 -82.0506
rradius 27.6133
rwrist -0.362287
rhand -18.4884 6.1039
rfingers 7.12502
rthumb 7.79893 -23.7323
lclavicle -1.175e-014 1.37161e-014
lhumerus -53.7083 13.3798 64.2611
lradius 15.7342
lwrist 1.67746
lhand -19.5856 16.8276
lfingers 7.12502
lthumb 6.73989 46.7004
rfemur 6.58335 -12.4917 29.4173
rtibia 17.981
rfoot -40.0712 -18.1817
rtoes 22.6859
lfemur -32.2888 14.2643 -22.5788
ltibia 40.6165
lfoot -17.7306 8.15745
ltoes -7.97981
1053
root -38.6126 16.718 -4.35777 345.419 78.4857 -376.645
lowerback 1.12446 5.17311 7.59739
upperback -1.35555 7.07485 0.45382
thorax -1.17897 3.46097 -3.84697
lowerneck -0.558341 13.403 5.30123
upperneck -5.80633 18.1116 0.826894
head -1.33739 8.96566 -0.688092
rclavicle -3.09359e-015 1.05356e-014
rhumerus -28.1288 -1.01943 -82.0953
rradius 28.122
rwrist -0.620218
rhand -18.6511 6.21934
rfingers 7.12502
rthumb 7.64193 -23.6226
lclavicle -3.09359e-015 1.05356e-014
lhumerus -54.2657 13.6628 63.493
lradius 15.3153
lwrist 1.11207
lhand -19.3839 16.8306
lfingers 7.12502
lthumb 6.93456 46.697
rfemur 6.80798 -12.4863 29.4943
rtibia 17.8229
rfoot -40.1013 -18.2378
rtoes 22.2169
lfemur -32.048 13.7154 -22.2888
ltibia 39.808
lfoot -18.034 8.24423
ltoes -7.81956
1054
root -38.5539 16.6987 -4.35469 344.943 78.4698 -377.207
lowerback 0.993498 5.19424 7.62347
upperback -1.36991 7.09286 0.463377
thorax -1.11667 3.47203 -3.8383
lowerneck -0.521896 13.4019 5.29065
upperneck -6.01015 18.1269 0.843722
head -1.41104 8.96931 -0.695868
rclavicle 1.37068e-014 4.96962e-015
rhumerus -27.628 -0.650073 -82.123
rradius 28.6328
rwrist -0.877174
rhand -18.8031 6.31437
rfingers 7.12502
rthumb 7.49525 -23.5328
lclavicle 1.37068e-014 4.96962e-015
lhumerus -54.8062 14.0768 62.5914
lradius 14.8302
lwrist 0.324756
lhand -19.0848 16.824
lfingers 7.12502
lthumb 7.22328 46.6807
rfemur 7.03714 -12.4887 29.5527
rtibia 17.6883
rfoot -40.1524 -18.2283
rtoes 21.848
lfemur -31.7903 13.1752 -21.9826
ltibia 39.0836
lfoot -18.3352 8.45575
ltoes -7.57244
1055
root -38.4941 16.6788 -4.35175 344.509 78.4245 -377.719
lowerback 0.869864 5.21405 7.63551
upperback -1.37733 7.10907 0.474988
thorax -1.05335 3.48252 -3.82023
lowerneck -0.484696 13.4011 5.27326
upperneck -6.22038 18.144 0.871588
head -1.48879 8.97371 -0.700145
rclavicle 1.50176e-014 2.18663e-015
rhumerus -27.1367 -0.330997 -82.1398
rradius 29.1486
rwrist -1.16116
rhand -18.9201 6.37398
rfingers 7.12502
rthumb 7.38226 -23.4772
lclavicle 1.50176e-014 2.18663e-015
lhumerus -55.3408 14.6352 61.5269
lradius 14.2905
lwrist -0.714329
lhand -18.6691 16.8438
lfingers 7.12502
lthumb 7.62456 46.6863
rfemur 7.27179 -12.4945 29.5974
rtibia 17.5728
rfoot -40.213 -18.1539
rtoes 21.5678
lfemur -31.5187 12.6627 -21.6629
ltibia 38.4444
lfoot -18.6195 8.76035
ltoes -7.22473
